<svg xmlns="http://www.w3.org/2000/svg" width="528" height="213" viewBox="0 0 528 213" fill="none">
    <g opacity="0.97">
        <path
            d="M336.327 35.8959L335.994 31.8776L335.652 27.8594H466.518V36.4317L410.606 36.9674L405.441 42.8609L405.452 95.6341C405.473 135.667 405.794 149.05 406.812 151.086C407.552 152.554 409.834 154.612 411.881 155.64C415.128 157.269 418.985 157.515 466.518 157.515V165.016H335.791V157.515L390.621 156.98L396.868 150.015V42.8609L391.704 36.9674L336.327 35.8959Z"
            fill="white" />
        <path
            d="M120.733 74.6641C121.194 71.6102 121.794 68.5135 122.041 67.7741C122.394 66.7776 127.013 66.4347 140.214 66.4347C149.954 66.4347 157.926 66.799 157.926 67.2384C157.937 67.6777 157.337 70.8709 156.587 74.3319C155.537 79.261 154.658 80.9219 152.569 81.9506C151.09 82.6792 149.493 84.1901 149.022 85.3045C148.55 86.4189 148.304 91.3051 148.486 96.1699C148.668 101.035 149.054 104.999 149.354 104.989C149.643 104.967 152.74 100.992 156.233 96.1377C159.727 91.2944 162.78 86.6118 163.016 85.7224C163.263 84.833 162.813 83.5257 162.03 82.8185C160.841 81.7363 160.873 80.3433 163.82 67.4741L195.966 67.5705L194.391 73.6997C193.416 77.493 191.883 80.5469 190.373 81.7041C188.165 83.3972 187.929 84.4687 187.929 92.6874C187.929 97.6915 188.219 102.642 188.572 103.671C189.076 105.106 190.608 103.521 195.109 96.9735C198.345 92.2588 201.549 87.2654 202.224 85.8831C203.252 83.7936 203.135 83.0971 201.592 81.8649C199.888 80.504 199.845 79.7432 202.395 67.4848L216.593 67.4955C224.394 67.5063 230.78 67.8706 230.77 68.3099C230.77 68.7492 229.923 71.696 228.894 74.8463C227.426 79.3789 226.365 80.8576 223.826 81.9077C222.058 82.6364 219.25 84.8759 217.6 86.8904C215.939 88.8941 207.967 100.906 185.186 136.62L167.57 137.156L167.442 127.244C167.367 121.79 167.013 114.343 165.963 104.035L145.304 137.692L129.531 138.313L128.652 112.822C127.998 93.7375 127.388 86.7189 126.241 84.9187C125.395 83.59 123.616 81.9934 122.298 81.3612C120.069 80.3111 119.951 79.7861 120.733 74.6641Z"
            fill="white" />
        <path
            d="M306.045 79.9147C305.884 79.8611 306.549 76.8179 307.524 73.1318L309.292 66.4347H336.873L343.302 84.6508C346.838 94.6697 349.742 103.467 349.764 104.206C349.785 105.085 350.103 104.996 350.717 103.939C351.232 103.049 352.657 98.3558 353.9 93.491C355.732 86.3332 355.904 84.3401 354.821 83.0007C354.082 82.0899 352.153 81.3612 350.535 81.3934C348.606 81.4148 347.589 80.879 347.589 79.8289C347.589 78.9396 348.189 75.8 350.267 67.4741L382.949 67.5063L382.413 69.9172C382.113 71.2459 381.513 74.2034 381.074 76.4964C380.549 79.2074 379.52 80.9433 378.127 81.4577C376.949 81.897 375.191 83.1614 374.216 84.2651C373.252 85.3581 369.737 96.3842 366.394 108.76C363.061 121.137 359.879 132.827 358.304 138.228H340.088L333.391 117.901C329.705 106.725 326.394 98.1629 326.029 98.8809C325.665 99.5988 324.529 103.799 323.5 108.225C322.472 112.682 321.957 117.451 322.365 118.94C322.772 120.408 324.047 122.583 325.204 123.762C327.176 125.766 327.219 126.259 324.325 136.62L289.725 137.156L290.347 134.209C290.69 132.591 291.654 129.698 292.49 127.78C293.326 125.862 294.73 124.298 295.619 124.298C296.498 124.298 298.673 123.58 300.441 122.69C302.209 121.801 304.373 119.637 305.263 117.868C306.141 116.1 308.552 108.385 310.62 100.724C312.678 93.0624 314.146 85.9474 313.889 84.9187C313.621 83.8901 311.821 82.3578 309.87 81.522C307.92 80.6754 306.195 79.9575 306.045 79.9147Z"
            fill="white" />
        <path
            d="M233.47 79.8289L234.991 73.6676L236.513 67.5063H300.441L297.901 76.8822C296.498 82.0363 295.051 87.5869 294.687 89.2049C294.055 91.9587 293.679 92.1302 288.922 91.8837C284.529 91.648 283.789 91.2837 283.564 89.2049C283.414 87.8762 281.85 85.5938 280.082 84.1151C278.314 82.6471 275.303 81.1576 273.385 80.8147C271.466 80.4718 268.498 80.354 266.773 80.5469C263.976 80.8683 263.398 81.6291 258.651 95.3662H272.581L271.895 99.9202C271.52 102.428 270.995 104.71 270.738 105.01C270.481 105.31 267.17 105.428 256.508 105.01L250.079 124.298L254.633 124.319C257.14 124.33 260.869 123.773 262.937 123.098C264.994 122.412 268.348 120.601 270.395 119.058C272.431 117.526 274.96 114.697 276.021 112.779C277.81 109.532 278.314 109.296 289.19 109.35L286.757 118.158C285.418 123.012 283.607 129.505 281.153 138.228H213.646L215.65 132.066C217.472 126.473 218.029 125.787 221.811 124.576C224.094 123.848 227.255 121.919 228.83 120.29C230.909 118.147 232.913 113.218 236.149 102.331C238.602 94.0804 240.445 86.3653 240.253 85.1866C240.06 84.0079 238.452 82.3256 233.47 79.8289Z"
            fill="white" />
        <path fill-rule="evenodd" clip-rule="evenodd"
            d="M70.5961 66.8312C67.0601 67.6134 61.0809 69.8958 57.3198 71.8996C53.5587 73.9033 48.6189 77.5894 46.3365 80.0968C44.0649 82.6042 40.4538 88.1441 38.3214 92.4195C36.1784 96.6949 33.5209 103.81 32.4066 108.225C31.2922 112.65 30.4028 117.954 30.4242 120.012C30.4349 122.069 31.3457 125.691 32.4387 128.048C33.521 130.405 35.5569 133.395 36.9606 134.681C38.3643 135.977 41.2039 137.735 43.2719 138.581C45.3293 139.439 51.362 140.456 56.6662 140.853C63.3418 141.346 68.7745 141.099 74.3465 140.028C78.7613 139.181 84.3118 137.499 86.6692 136.31C89.0266 135.11 92.8841 132.474 95.2415 130.459C97.6525 128.391 101.349 123.333 103.717 118.844C106.021 114.482 108.979 107.775 110.286 103.939C111.593 100.102 112.997 94.7983 113.425 92.1516C113.854 89.4192 113.672 85.3581 113.018 82.7757C112.375 80.2683 110.479 76.6572 108.796 74.7391C107.125 72.8211 103.267 70.1744 100.224 68.8457C96.5595 67.2491 91.7268 66.2633 85.8655 65.9097C80.4543 65.5989 74.518 65.9525 70.5961 66.8312ZM81.3115 82.1649C78.9541 81.8434 75.3645 82.0149 73.3393 82.5506C71.3141 83.0864 68.5816 84.8652 67.2637 86.4939C65.9457 88.1333 62.356 95.0126 59.3021 101.795C54.8553 111.611 53.8587 114.825 54.3945 117.601C54.7802 119.626 56.2911 121.994 58.0056 123.258C59.6236 124.458 61.9167 125.423 63.0954 125.401C64.2741 125.38 67.0386 124.876 69.2567 124.287C71.4641 123.708 74.8073 121.897 76.6825 120.279C78.6648 118.565 81.9973 113.293 84.644 107.689C87.1407 102.385 89.4552 96.2449 89.7874 94.0375C90.1195 91.8301 90.1517 88.8191 89.8624 87.3404C89.5838 85.8617 88.5015 84.2222 87.4729 83.7079C86.4335 83.1828 83.6689 82.4971 81.3115 82.1649Z"
            fill="white" />
    </g>
    <path
        d="M39.0383 162.746C35.0255 162.746 31.6041 159.303 31.6041 155.227C31.6041 151.151 35.0255 147.729 39.0383 147.729C43.0723 147.729 46.4515 151.151 46.4515 155.227C46.4515 159.303 43.0723 162.746 39.0383 162.746ZM39.0383 161.225C42.1641 161.225 44.783 158.479 44.783 155.227C44.783 151.996 42.1641 149.25 39.0383 149.25C35.9126 149.25 33.2726 151.996 33.2726 155.227C33.2726 158.479 35.9126 161.225 39.0383 161.225ZM52.7505 162.492L47.7873 147.983H49.6459L53.6587 159.725L57.5025 147.983H59.3399L63.1838 159.725L67.1966 147.983H69.0551L64.0919 162.492H62.4657L58.4318 150.137L54.3767 162.492H52.7505ZM81.9184 149.546H73.1747V154.319H81.0525V155.882H73.1747V160.929H81.9184V162.492H71.5062V147.983H81.9184V149.546ZM85.0643 162.492V147.983H86.7116L95.7088 159.789V147.983H97.3561V162.492H95.7088L86.7116 150.686V162.492H85.0643ZM112.152 162.725C109.766 162.725 107.886 161.859 106.429 160.422L107.464 159.134C108.688 160.359 110.188 161.225 112.216 161.225C114.454 161.225 115.595 160 115.595 158.691C115.595 157.149 114.222 156.536 111.688 155.945C108.773 155.269 106.936 154.361 106.936 151.848C106.936 149.525 109.005 147.708 111.793 147.708C113.947 147.708 115.552 148.553 116.883 149.778L115.869 151.066C114.665 149.905 113.229 149.208 111.709 149.208C109.913 149.208 108.604 150.39 108.604 151.721C108.604 153.221 110.04 153.749 112.511 154.34C115.278 154.995 117.263 155.987 117.263 158.543C117.263 160.845 115.531 162.725 112.152 162.725ZM124.239 162.492V149.546H119.36V147.983H130.765V149.546H125.886V162.492H124.239ZM143.793 149.546H135.05V154.319H142.927V155.882H135.05V160.929H143.793V162.492H133.381V147.983H143.793V149.546ZM157.035 149.546H148.291V154.319H156.169V155.882H148.291V160.929H157.035V162.492H146.622V147.983H157.035V149.546ZM161.279 160.929H169.199V162.492H159.631V147.983H161.279V160.929ZM184.568 162.746C180.556 162.746 177.134 159.303 177.134 155.227C177.134 151.151 180.556 147.729 184.568 147.729C186.575 147.729 188.433 148.574 189.785 149.947L188.666 151.087C187.61 149.968 186.152 149.25 184.568 149.25C181.443 149.25 178.803 151.996 178.803 155.227C178.803 158.479 181.443 161.225 184.568 161.225C186.152 161.225 187.61 160.507 188.666 159.388L189.785 160.528C188.433 161.88 186.575 162.746 184.568 162.746ZM198.614 162.746C194.601 162.746 191.18 159.303 191.18 155.227C191.18 151.151 194.601 147.729 198.614 147.729C202.648 147.729 206.027 151.151 206.027 155.227C206.027 159.303 202.648 162.746 198.614 162.746ZM198.614 161.225C201.74 161.225 204.359 158.479 204.359 155.227C204.359 151.996 201.74 149.25 198.614 149.25C195.488 149.25 192.848 151.996 192.848 155.227C192.848 158.479 195.488 161.225 198.614 161.225ZM209.103 162.492V147.983H210.75L216.136 158.099L221.522 147.983H223.169V162.492H221.522V151.531L216.136 161.647L210.75 151.531V162.492H209.103ZM226.812 162.492V147.983H232.705C235.704 147.983 238.048 149.905 238.048 152.629C238.048 155.354 235.704 157.276 232.705 157.276H228.46V162.492H226.812ZM228.46 155.713H232.409C234.775 155.713 236.38 154.572 236.38 152.629C236.38 150.686 234.775 149.546 232.409 149.546H228.46V155.713ZM252.21 162.492L250.753 159.197H242.664L241.207 162.492H239.412L245.811 147.983H247.606L254.006 162.492H252.21ZM243.34 157.635H250.077L246.719 150.01L243.34 157.635ZM256.664 162.492V147.983H258.312L267.309 159.789V147.983H268.956V162.492H267.309L258.312 150.686V162.492H256.664ZM277.162 162.492V156.579L271.312 147.983H273.36L278.028 155.016L282.738 147.983H284.723L278.894 156.579V162.492H277.162ZM292.895 162.492V147.983H294.542V162.492H292.895ZM298.203 162.492V147.983H299.85L308.848 159.789V147.983H310.495V162.492H308.848L299.85 150.686V162.492H298.203ZM321.003 162.746C316.99 162.746 313.569 159.303 313.569 155.227C313.569 151.151 316.99 147.729 321.003 147.729C323.009 147.729 324.868 148.574 326.219 149.947L325.1 151.087C324.044 149.968 322.587 149.25 321.003 149.25C317.877 149.25 315.237 151.996 315.237 155.227C315.237 158.479 317.877 161.225 321.003 161.225C322.587 161.225 324.044 160.507 325.1 159.388L326.219 160.528C324.868 161.88 323.009 162.746 321.003 162.746ZM329.529 162.746C328.874 162.746 328.367 162.218 328.367 161.584C328.367 160.993 328.874 160.465 329.529 160.465C330.141 160.465 330.648 160.993 330.648 161.584C330.648 162.218 330.141 162.746 329.529 162.746Z"
        fill="white" />
    <path opacity="0.96"
        d="M437.235 43.6647C436.902 45.8721 434.984 50.094 432.97 53.0407C430.955 55.9874 426.948 59.995 424.076 61.9452C421.194 63.8847 417.015 65.8134 414.797 66.2313C412.579 66.6385 410.757 67.2171 410.768 67.5065C410.768 67.7958 412.579 68.3208 414.797 68.653C417.025 68.9959 421.129 70.5603 423.926 72.1355C427.001 73.8714 430.366 77.0217 432.423 80.097C434.299 82.8937 436.667 87.5978 437.695 90.5445C439.046 94.3806 439.592 95.1414 439.635 93.2233C439.667 91.7446 440.256 88.8515 440.931 86.7941C441.617 84.7368 443.31 81.4793 444.703 79.5612C446.096 77.6432 449.161 74.8679 451.518 73.3999C453.876 71.9212 457.98 70.121 460.637 69.3816C463.294 68.6423 465.47 67.6779 465.459 67.2386C465.448 66.7992 464.237 66.4349 462.769 66.4349C461.291 66.4349 457.84 65.3527 455.097 64.024C452.354 62.6953 448.646 59.92 446.878 57.8626C445.1 55.8053 442.774 52.1835 441.714 49.8261C440.653 47.4687 439.763 44.2112 439.753 42.5932C439.742 40.9752 439.303 39.6465 438.778 39.6465C438.253 39.6465 437.556 41.4574 437.235 43.6647Z"
        fill="#FEF101" />
    <path opacity="0.96"
        d="M468.494 69.1133C468.162 69.7026 467.562 71.6314 467.155 73.3994C466.748 75.1674 464.765 79.025 462.751 81.9717C460.726 84.9184 457.275 88.5402 455.068 90.0082C452.871 91.487 448.639 93.5015 445.671 94.4873C441.835 95.7624 441.042 96.3089 442.949 96.3732C444.428 96.416 448.039 97.584 450.985 98.9556C453.932 100.338 458.154 103.467 460.361 105.91C462.569 108.364 465.033 111.696 465.837 113.314C466.641 114.932 467.659 117.707 468.109 119.476C468.912 122.604 468.977 122.529 470.637 116.797C471.859 112.564 473.713 109.5 477.195 105.942C480.71 102.352 484 100.284 489.025 98.4948L495.99 96.0196C486.443 93.2871 482.617 91.1441 479.574 88.4009C476.949 86.0436 474.077 82.6682 473.166 80.9002C472.266 79.1321 470.98 75.5103 470.316 72.8636C469.641 70.2169 468.816 68.5239 468.494 69.1133Z"
        fill="#FD1F15" />
    <path opacity="0.96"
        d="M437.738 101.26C437.106 103.617 435.123 107.839 433.334 110.636C431.534 113.465 427.826 117.172 424.997 118.983C422.201 120.783 417.743 122.787 415.086 123.441L410.264 124.641C418.986 126.87 423.326 128.68 425.533 130.116C427.74 131.541 430.998 134.767 432.766 137.285C434.534 139.803 436.774 144.293 437.749 147.272L439.517 152.694C440.588 146.05 441.96 142.235 443.256 139.942C444.564 137.638 447.317 134.381 449.375 132.699C451.443 131.006 456.265 128.455 460.09 127.02C464.733 125.277 466.162 124.384 464.376 124.341C462.908 124.309 459.287 123.162 456.34 121.801C453.361 120.419 449.182 117.215 446.91 114.579C444.467 111.718 442.056 107.271 440.867 103.403L438.895 96.9736L437.738 101.26Z"
        fill="#0047FF" />
</svg>